<?xml version="1.0" encoding="UTF-8" standalone="no"?>
<svg
   height="512"
   viewBox="0 -960 20480 20480"
   width="512"
   fill="#5f6368"
   version="1.1"
   id="svg142"
   sodipodi:docname="ai.logo.svg"
   inkscape:version="1.2.1 (9c6d41e410, 2022-07-14)"
   xmlns:inkscape="http://www.inkscape.org/namespaces/inkscape"
   xmlns:sodipodi="http://sodipodi.sourceforge.net/DTD/sodipodi-0.dtd"
   xmlns="http://www.w3.org/2000/svg"
   xmlns:svg="http://www.w3.org/2000/svg">
  <defs
     id="defs146" />
  <sodipodi:namedview
     id="namedview144"
     pagecolor="#ffffff"
     bordercolor="#000000"
     borderopacity="0.25"
     inkscape:showpageshadow="2"
     inkscape:pageopacity="0.0"
     inkscape:pagecheckerboard="0"
     inkscape:deskcolor="#d1d1d1"
     showgrid="false"
     inkscape:zoom="1"
     inkscape:cx="-12.5"
     inkscape:cy="12"
     inkscape:window-width="3840"
     inkscape:window-height="2089"
     inkscape:window-x="-8"
     inkscape:window-y="897"
     inkscape:window-maximized="1"
     inkscape:current-layer="layer1" />
  <path
     d="m 305.60669,-683.84937 v -80 h 560 v 80 z m 0,160 v -80 h 560 v 80 z m 0,160 v -80 h 560 v 80 z m -120,-320 c -11.33333,0 -20.83333,-3.83333 -28.5,-11.5 -7.66667,-7.66667 -11.5,-17.16667 -11.5,-28.5 0,-11.33333 3.83333,-20.83333 11.5,-28.5 7.66667,-7.66667 17.16667,-11.5 28.5,-11.5 11.33333,0 20.83333,3.83333 28.5,11.5 7.66667,7.66667 11.5,17.16667 11.5,28.5 0,11.33333 -3.83333,20.83333 -11.5,28.5 -7.66667,7.66667 -17.16667,11.5 -28.5,11.5 z m 0,160 c -11.33333,0 -20.83333,-3.83333 -28.5,-11.5 -7.66667,-7.66667 -11.5,-17.16667 -11.5,-28.5 0,-11.33333 3.83333,-20.83333 11.5,-28.5 7.66667,-7.66667 17.16667,-11.5 28.5,-11.5 11.33333,0 20.83333,3.83333 28.5,11.5 7.66667,7.66667 11.5,17.16667 11.5,28.5 0,11.33333 -3.83333,20.83333 -11.5,28.5 -7.66667,7.66667 -17.16667,11.5 -28.5,11.5 z m 0,160 c -11.33333,0 -20.83333,-3.83333 -28.5,-11.5 -7.66667,-7.66667 -11.5,-17.16667 -11.5,-28.5 0,-11.33333 3.83333,-20.83333 11.5,-28.5 7.66667,-7.66667 17.16667,-11.5 28.5,-11.5 11.33333,0 20.83333,3.83333 28.5,11.5 7.66667,7.66667 11.5,17.16667 11.5,28.5 0,11.33333 -3.83333,20.83333 -11.5,28.5 -7.66667,7.66667 -17.16667,11.5 -28.5,11.5 z"
     id="path140"
     sodipodi:nodetypes="cccccccccccccccsssssssssssssssssssssssssss"
     style="display:none" />
  <g
     inkscape:groupmode="layer"
     id="layer1"
     inkscape:label="Layer 1">
    <path
       d="M 5684.3993,10191.12 V 8368.88 H 18440.081 v 1822.24 z m -2733.3602,0 c -258.1505,0 -474.5416,-87.315 -649.1732,-261.947 C 2127.2347,9754.542 2039.919,9538.151 2039.919,9280 c 0,-258.151 87.3158,-474.542 261.9469,-649.173 174.6316,-174.631 391.0226,-261.947 649.1731,-261.947 258.1506,0 474.5417,87.316 649.1731,261.947 174.6314,174.631 261.9471,391.022 261.9471,649.173 0,258.151 -87.3157,474.542 -261.9471,649.173 -174.6314,174.632 -391.0225,261.947 -649.173,261.947 z"
       id="path460-9"
       style="fill:#964b00;fill-opacity:1;stroke-width:22.778" />
    <path
       d="M 5684.3993,13835.6 V 12013.36 H 18440.081 v 1822.24 z m -2733.3602,0 c -258.1505,0 -474.5416,-87.315 -649.1732,-261.947 -174.6312,-174.631 -261.9469,-391.022 -261.9469,-649.173 0,-258.151 87.3158,-474.542 261.9469,-649.173 174.6316,-174.631 391.0226,-261.947 649.1731,-261.947 258.1506,0 474.5417,87.316 649.1731,261.947 174.6314,174.631 261.9471,391.022 261.9471,649.173 0,258.151 -87.3157,474.542 -261.9471,649.173 -174.6314,174.632 -391.0225,261.947 -649.173,261.947 z"
       id="path460"
       style="fill:#f5deb3;fill-opacity:1;stroke-width:22.778" />
    <path
       d="M 5684.3993,6546.64 V 4724.4 H 18440.081 v 1822.24 z m -2733.3602,0 c -258.1505,0 -474.5416,-87.315 -649.1732,-261.947 -174.6312,-174.631 -261.9469,-391.022 -261.9469,-649.173 0,-258.151 87.3158,-474.542 261.9469,-649.173 174.6316,-174.631 391.0226,-261.947 649.1731,-261.947 258.1506,0 474.5417,87.316 649.1731,261.947 174.6314,174.631 261.9471,391.022 261.9471,649.173 0,258.151 -87.3157,474.542 -261.9471,649.173 -174.6314,174.632 -391.0225,261.947 -649.173,261.947 z"
       id="path460-3"
       style="fill:#452b1f;fill-opacity:1;stroke-width:22.778" />
  </g>
</svg>
