<?xml version="1.0" encoding="utf-8"?>
<!-- Generator: Adobe Illustrator 24.1.0, SVG Export Plug-In . SVG Version: 6.00 Build 0)  -->
<svg version="1.1" id="Layer_1" xmlns="http://www.w3.org/2000/svg" xmlns:xlink="http://www.w3.org/1999/xlink" x="0px" y="0px"
	 viewBox="0 0 1876.6589355 328.5715637" style="enable-background:new 0 0 1876.6589355 328.5715637;" xml:space="preserve">
<style type="text/css">
	.st0{fill:#00AEEF;}
	.st1{fill:#008CCF;}
</style>
<g>
	<path class="st0" d="M125.0004578,13.4060478C56.0003128,13.405695,0.0003531,69.4050827,0,138.4052277
		s55.9990349,125.0001068,124.999176,125.0004425c69.0001526,0.0003662,125.0001068-55.9990234,125.0004578-124.9991608
		S194.0005951,13.4064016,125.0004578,13.4060478z M124.9996262,175.9058075
		c-20.7496338-0.0001068-37.4998627-16.7512665-37.4997559-37.5001373
		c0.0001068-20.7503891,16.7505035-37.499855,37.5001373-37.4997482s37.499855,16.7497406,37.4997635,37.5001297
		C162.4996643,159.1549225,145.7492676,175.9059143,124.9996262,175.9058075z"/>
	<path class="st1" d="M265.4999695,107.1560211c31.7554626,9.136734,69.2501221,0.0003357,69.2501221,0.0003357
		c-10.8758545,47.5007324-45.3752136,77.2492065-95.1255035,80.8744659
		C220.4998627,232.4065094,176.3745728,263.4061584,125,263.4059143l37.5003967-119.1857758
		C201.0488129,21.7035465,220.806015,13.4054594,312.2287292,13.4059067L375,13.4062138
		C364.4994812,59.6557198,328.3123779,94.9902802,265.4999695,107.1560211z"/>
</g>
<g>
	<path class="st0" d="M606.1845093,16.4401321c-69.8588257,0-104.6803284,51.5080719-104.6792908,121.7967148
		c0,71.1013947,34.2939148,122.1226196,104.6792908,122.1226196c69.8741455,0,105.0164185-51.021225,105.0164185-122.1226196
		C711.1998901,66.7464066,677.5181274,16.4401321,606.1845093,16.4401321z M606.1845093,220.0993805
		c-40.0115967,0-46.96875-41.8244629-46.96875-81.8625336c0-40.3374939,6.6149902-81.5284729,46.96875-81.5284729
		c40.4882202,0,47.3088989,40.8874741,47.3088989,81.5284729
		C653.4934082,179.126358,646.9711304,220.0993805,606.1845093,220.0993805z M844.9014893,70.7978821
		c-22.7199707,0-39.7406616,9.6469421-54.3526001,26.8427811l-1.2659912-7.251503
		c-1.4014282-8.0296173-8.3738403-13.891922-16.5256958-13.891922H740.557312l0.0009766,169.7727356
		c0,4.6320038,3.755127,8.3881073,8.387146,8.3881073h44.6221924V138.0229797c0-3.3568878,0.9420776-6.7117157,2.8903809-9.4473267
		c8.9615479-12.5781021,18.2896729-18.8620529,27.9783936-18.8620529c13.8786621,0,16.7752075,10.056366,16.7752075,23.8199539
		v112.7364197c0,4.6320038,3.7561035,8.3860779,8.3881226,8.3860779h44.6221924l-0.0010376-130.1726074
		C894.2208862,89.2525482,874.7630615,70.7978821,844.9014893,70.7978821z M994.0523071,218.1276245
		c-1.0286865,0.1731415-2.0349121,0.2912903-2.8670044,0.2912903c-6.0415649,0-9.0592651-3.6868591-9.0592651-11.0646515V0
		l-45.5245972,4.9029117c-4.2602539,0.4583111-7.4898071,4.0535083-7.4898071,8.3392277v196.1164703
		c0,33.6828156,19.0413208,51.0008545,48.9883423,51.0008545c11.8519287,0,22.5866089-2.0084229,32.2070923-6.0374756
		l-8.6804199-31.3647766C1000.7089844,219.6390381,997.4468384,217.5552521,994.0523071,218.1276245z M1132.458252,76.4972382
		c-3.873291,0-7.2424316,2.652092-8.1529541,6.4163589l-33.3426514,137.8559265l-30.4195557-137.6929932
		c-0.8483887-3.8416672-4.2541504-6.5793076-8.1895752-6.5793076h-49.6309814l50.7319336,166.2793884
		c2.1540527,7.0579834,8.6662598,11.879425,16.0460205,11.879425h5.6942139
		c-10.8598633,26.1461334-27.2307129,33.2672882-57.3713379,37.2474518l4.5230103,29.523407
		c0.6660767,4.3468323,4.5953979,7.540741,8.9706421,7.1048279c47.0095215-4.7032776,78.1043701-27.1564636,92.5290527-73.5375519
		l56.6992188-178.4969482H1132.458252z"/>
	<path class="st1" d="M1202.9342041,30.5357494l0.0010986,224.1203003h46.6367188
		c4.631958,0,8.3880615-3.7561188,8.3880615-8.3881226l-0.0009766-83.8770599h50.9539795
		c6.4276123,0,11.8223877-4.845871,12.5098877-11.2357483l3.0136719-28.0160599h-66.4775391V61.3994446h66.9521484
		c6.2492676,0,11.5524902-4.5871849,12.4508057-10.7713318l4.1390381-28.4804764h-130.1787109
		C1206.6903076,22.1476364,1202.9342041,25.9037514,1202.9342041,30.5357494z M1511.0263672,194.9329987V76.4972382h-32.21521
		c-7.9959717,0-14.8798828,5.6423187-16.4493408,13.4804611l-0.3238525,1.6152878
		c-11.1848145-13.8593292-21.6628418-20.797142-39.7783203-20.797142c-48.8753662,0-74.1507568,43.7554779-74.1507568,94.2797165
		c0,50.3408966,18.5646973,95.2818909,68.7823486,95.2818909c21.6658936,0,36.1567383-11.1787262,47.8344727-27.1707306
		c4.9283447,9.2843628,12.3804932,15.4827728,21.2279053,19.7786713
		c12.2298584,5.9356384,26.9639893,0.2077637,32.050293-12.3968048l7.4470215-18.4567108
		C1513.4472656,216.10495,1511.0263672,208.6151276,1511.0263672,194.9329987z M1454.8781738,206.7146606
		c-6.8074951,9.8180389-12.7166748,14.727066-23.222168,14.727066c-25.5045166,0-28.5222168-30.4237213-28.5222168-56.0280457
		c0-25.5839386,5.3051758-56.0361786,30.8687744-56.0361786c7.8758545,0,12.4558105,2.3302612,19.4689941,9.7161942
		c2.9210205,3.0737457,4.5404053,7.2229919,4.5404053,11.4638901l0.0009766,66.3940277
		C1458.0129395,200.4408875,1456.8671875,203.8466492,1454.8781738,206.7146606z M1625.293457,77.5034866
		c-8.8382568,4.4812622-17.0583496,11.1909409-24.6591797,20.1331024l-1.2658691-7.2494659
		c-1.4014893-8.0316544-8.3739014-13.8898849-16.5257568-13.8898849h-32.1999512l0.0010986,169.7706909
		c0,4.6320038,3.755127,8.3881226,8.387085,8.3881226h44.6221924V138.0209351c0-3.3568726,0.94104-6.709671,2.8884277-9.4432526
		c8.9625244-12.5801315,18.2906494-18.8661194,27.9793701-18.8661194c13.8796387,0,16.7762451,10.056366,16.7762451,23.8199615
		v112.7364044c0,4.6320038,3.7550049,8.3881226,8.3880615,8.3881226h44.6212158V124.4793701
		C1704.3063965,70.598259,1657.1796875,61.3627815,1625.293457,77.5034866z M1797.8140869,136.8904419
		c-7.4460449-3.2346649-12.3428955-6.1495209-12.7258301-13.7717514
		c-0.3482666-6.9235535,5.1860352-12.8978958,12.0577393-13.7982254
		c15.7790527-2.0695267,31.4248047,1.0673599,46.9523926,9.4126968c3.7398682,2.0104599,8.4187012,0.6171951,10.7357178-2.9393005
		l15.111084-23.1925888c-18.3752441-14.9776077-41.9019775-21.8074646-65.4234619-21.8074646
		c-37.3543701,0-72.807373,18.5422516-72.807373,54.3496017c0,49.0006027,54.7407227,54.3373795,77.1694336,63.5810013
		c8.7252197,3.611496,12.8409424,7.2005768,13.0751953,16.1244049c0.211792,8.0866547-5.8317871,15.2892761-13.8155518,16.601059
		c-18.8662109,3.1002197-36.75354-1.0225372-53.6693115-12.3662567c-3.380249-2.2671051-7.9572754-1.5052948-10.6724854,1.52771
		l-20.8063965,23.2394257c19.7980957,18.3365326,47.7102051,26.5046539,74.4827881,26.5046539
		c40.2550049,0,79.1809082-18.9028015,79.1809082-58.7127228
		C1876.6589355,152.3080292,1829.3917236,150.6295929,1797.8140869,136.8904419z"/>
</g>
</svg>
