<?xml version="1.0" encoding="UTF-8" standalone="no"?>
<!-- Created with Inkscape (http://www.inkscape.org/) -->

<svg
   width="33.866665mm"
   height="22.577774mm"
   viewBox="0 0 33.866665 22.577774"
   version="1.1"
   id="svg452"
   xmlns:inkscape="http://www.inkscape.org/namespaces/inkscape"
   xmlns:sodipodi="http://sodipodi.sourceforge.net/DTD/sodipodi-0.dtd"
   xmlns="http://www.w3.org/2000/svg"
   xmlns:svg="http://www.w3.org/2000/svg">
  <sodipodi:namedview
     id="namedview454"
     pagecolor="#ffffff"
     bordercolor="#000000"
     borderopacity="0.25"
     inkscape:showpageshadow="2"
     inkscape:pageopacity="0.0"
     inkscape:pagecheckerboard="0"
     inkscape:deskcolor="#d1d1d1"
     inkscape:document-units="mm"
     showgrid="false" />
  <defs
     id="defs449" />
  <g
     inkscape:label="Layer 1"
     inkscape:groupmode="layer"
     id="layer1"
     transform="translate(-27.672677,-45.901442)">
    <g
       id="g150"
       transform="matrix(0.09031111,0,0,0.09031111,27.672677,44.69074)"
       inkscape:export-filename="onlyfans-logo.svg"
       inkscape:export-xdpi="96"
       inkscape:export-ydpi="96">
	<path
   class="st0"
   d="M 125.00046,13.406048 C 56.000313,13.405695 3.531e-4,69.405083 0,138.40523 c -3.531e-4,69.00014 55.999035,125.0001 124.99918,125.00044 69.00015,3.7e-4 125.0001,-55.99902 125.00045,-124.99916 C 249.99998,69.406372 194.0006,13.406402 125.00046,13.406048 Z m -8.3e-4,162.499762 c -20.74964,-1.1e-4 -37.499867,-16.75127 -37.49976,-37.50014 1.07e-4,-20.75039 16.7505,-37.49985 37.50014,-37.49975 20.74963,1.1e-4 37.49985,16.74974 37.49976,37.50013 -1.1e-4,20.74887 -16.7505,37.49986 -37.50014,37.49976 z"
   id="path146"
   style="fill:#00aeef" />

	<path
   class="st1"
   d="m 265.49997,107.15602 c 31.75546,9.13674 69.25012,3.4e-4 69.25012,3.4e-4 -10.87585,47.50073 -45.37521,77.2492 -95.1255,80.87446 C 220.49986,232.40651 176.37457,263.40616 125,263.40591 L 162.5004,144.22014 C 201.04881,21.703547 220.80601,13.405459 312.22873,13.405907 L 375,13.406214 C 364.49948,59.65572 328.31238,94.99028 265.49997,107.15602 Z"
   id="path148"
   style="fill:#008ccf" />

</g>
  </g>
</svg>
