<?xml version="1.0" standalone="no"?>
<!DOCTYPE svg PUBLIC "-//W3C//DTD SVG 20010904//EN"
 "http://www.w3.org/TR/2001/REC-SVG-20010904/DTD/svg10.dtd">
<svg version="1.0" xmlns="http://www.w3.org/2000/svg"
 width="700.000000pt" height="700.000000pt" viewBox="0 0 700.000000 700.000000"
 preserveAspectRatio="xMidYMid meet">
<metadata>
Created by potrace 1.14, written by Peter Selinger 2001-2017
</metadata>
<g transform="translate(0.000000,700.000000) scale(0.100000,-0.100000)"
fill="#000000" stroke="none">
<path d="M940 5050 c-137 -26 -241 -157 -241 -305 0 -282 342 -416 539 -212
109 113 105 322 -10 436 -67 67 -186 101 -288 81z"/>
<path d="M1944 4746 l1 -311 2178 0 c1506 -1 2177 2 2178 10 0 5 1 145 1 310
l1 300 -2180 1 -2180 1 1 -311z"/>
<path d="M903 3796 c-53 -18 -122 -73 -153 -123 -104 -164 -48 -370 123 -452
55 -26 72 -30 142 -28 94 2 156 28 218 90 60 60 81 116 82 217 0 75 -4 92 -30
144 -54 107 -161 169 -284 165 -36 -1 -80 -7 -98 -13z"/>
<path d="M1943 3500 l-1 -310 2179 0 c1199 0 2179 3 2180 8 1 9 1 583 0 600
-1 9 -444 12 -2180 12 l-2178 0 0 -310z"/>
<path d="M930 2555 c-143 -38 -232 -154 -231 -301 1 -186 145 -319 333 -309
175 10 301 160 285 339 -9 105 -74 203 -165 250 -58 30 -155 39 -222 21z"/>
<path d="M1946 2561 c-2 -3 -3 -143 -2 -311 l1 -305 2178 -1 2177 -2 1 32 c0
17 1 157 1 311 l1 280 -2177 1 c-1197 0 -2178 -2 -2180 -5z"/>
</g>
</svg>
