<?xml version="1.0" encoding="UTF-8" standalone="no"?>
<svg
   width="30.7729"
   height="29.4701"
   viewBox="0 0 30.7729 29.4701"
   fill="none"
   version="1.1"
   id="svg14"
   sodipodi:docname="658315a8cc8cc05b4a90af40_BeaconsLogoBlack.svg"
   inkscape:version="1.2.1 (9c6d41e410, 2022-07-14)"
   xmlns:inkscape="http://www.inkscape.org/namespaces/inkscape"
   xmlns:sodipodi="http://sodipodi.sourceforge.net/DTD/sodipodi-0.dtd"
   xmlns="http://www.w3.org/2000/svg"
   xmlns:svg="http://www.w3.org/2000/svg">
  <defs
     id="defs18" />
  <sodipodi:namedview
     id="namedview16"
     pagecolor="#ffffff"
     bordercolor="#000000"
     borderopacity="0.25"
     inkscape:showpageshadow="2"
     inkscape:pageopacity="0.0"
     inkscape:pagecheckerboard="0"
     inkscape:deskcolor="#d1d1d1"
     showgrid="false"
     inkscape:zoom="8.8345324"
     inkscape:cx="62.368893"
     inkscape:cy="15.05456"
     inkscape:window-width="3840"
     inkscape:window-height="2089"
     inkscape:window-x="-8"
     inkscape:window-y="897"
     inkscape:window-maximized="1"
     inkscape:current-layer="svg14" />
  <path
     d="m 11.187,14.4386 c 3.9842,0 7.214,-3.2323 7.214,-7.21932 C 18.401,3.23218 15.1712,0 11.187,0 7.20278,0 3.97295,3.23218 3.97295,7.21928 c 0,3.98702 3.22983,7.21932 7.21405,7.21932 z"
     fill="#0f1013"
     id="path2" />
  <path
     d="m 24.1513,9.83501 c 2.0017,0 3.6245,-1.62393 3.6245,-3.62711 0,-2.00317 -1.6228,-3.62707 -3.6245,-3.62707 -2.0017,0 -3.6244,1.6239 -3.6244,3.62707 0,2.00318 1.6227,3.62711 3.6244,3.62711 z"
     fill="#0f1013"
     id="path4" />
  <path
     d="m 3.62444,20.5418 c 2.00172,0 3.62444,-1.6238 3.62444,-3.6271 0,-2.0031 -1.62272,-3.6271 -3.62444,-3.6271 C 1.62272,13.2876 0,14.9116 0,16.9147 c 0,2.0033 1.62272,3.6271 3.62444,3.6271 z"
     fill="#0f1013"
     id="path6" />
  <path
     d="m 23.2452,26.8544 c 4.1575,0 7.5277,-3.3728 7.5277,-7.5333 0,-4.1604 -3.3702,-7.5331 -7.5277,-7.5331 -4.1574,0 -7.5277,3.3727 -7.5277,7.5331 0,4.1605 3.3703,7.5333 7.5277,7.5333 z"
     fill="#0f1013"
     id="path8" />
  <path
     d="m 10.3855,29.4701 c 2.5021,0 4.5305,-2.03 4.5305,-4.5339 0,-2.504 -2.0284,-4.5338 -4.5305,-4.5338 -2.5022,0 -4.5306,2.0298 -4.5306,4.5338 0,2.5039 2.0284,4.5339 4.5306,4.5339 z"
     fill="#0f1013"
     id="path10" />
</svg>
